<svg version="1.1" preserveAspectRatio="none" xmlns="http://www.w3.org/2000/svg" width="500" height="500" viewBox="0 0 500 500"><rect width="100%" height="100%" fill="#FFFFFF" fill-opacity="1"/><svg viewBox="116.4919 444.3597 571.0886 154" width="333" height="89.79692468033856" x="83.5px" y="205.1015px" xmlns="http://www.w3.org/2000/svg" xmlns:xlink="http://www.w3.org/1999/xlink" preserveAspectRatio="none"><defs></defs><style>.companyName {fill:#4D4D4D;fill-opacity:1;}.icon1 {fill:#FF834F;fill-opacity:1;}.icon2 {fill:#FF4949;fill-opacity:1;}.icon3 {fill:#FFAE78;fill-opacity:1;}.icon3-str {stroke:#FFAE78;stroke-opacity:1;}.shapeStroke-str {stroke:#313131;stroke-opacity:1;}</style><g opacity="1" transform="rotate(0 116.4919 456.3597)">
<svg width="149.5694" height="130" x="116.4919" y="456.3597" version="1.1" preserveAspectRatio="none" viewBox="2358.994384765625 5976 55282.0078125 48049">
  <g transform="matrix(1 0 0 1 0 0)" class="icon1"><defs></defs><g><path class="fil0" d="M6236 5976l47487 0c177,0 331,101 406,249l3452 6039c88,154 76,337 -15,476l-23721 41052c-16,29 -35,55 -57,80l0 0c-2,3 -5,6 -8,8l-3 3 -3 3 -6 6 -1 1 -1 1c-36,35 -77,64 -121,85l-1 0c-3,1 -6,3 -8,4l-3 1 -2 1c-59,26 -121,39 -183,39l0 1 -7035 0c-177,0 -330,-101 -406,-248l-23588 -41239c-88,-154 -76,-338 15,-477l3407 -5857c84,-145 237,-227 393,-227l0 -1zm14316 12626l9417 16338 9383 -16399 -18799 61zm9943 17251l2836 4920 19603 -33886 -46437 0 -2892 4972 39793 74c251,0 454,203 454,454 0,82 -22,159 -60,225l1 1 -13297 23240zm23225 -28509l-19996 34565 -1 0c-39,67 -95,125 -167,166 -217,125 -495,50 -619,-167l-13431 -23302 -5822 19 19763 34037 23213 -40173 -2941 -5145zm-21061 45769l-20155 -34712 1 0c-39,-67 -61,-145 -61,-228 0,-251 203,-454 454,-454l26975 -88 2742 -4792 -39014 -72 23078 40346 5981 0z"></path></g></g>
</svg>
</g><g opacity="1" transform="rotate(0 330.0613 471.3597)">
<svg width="357.5192" height="100" x="330.0613" y="471.3597" version="1.1" preserveAspectRatio="none" viewBox="2.88 -26.28 122.84 34.36">
  <g transform="matrix(1 0 0 1 0 0)" class="companyName"><path id="id-D6z1nYkh4" d="M30.44-21.84Q34.48-21.84 36.86-19.46Q39.24-17.08 39.24-12.32L39.24-12.32L39.24 0L33 0L33-11.36Q33-13.92 31.94-15.18Q30.88-16.44 28.92-16.44L28.92-16.44Q26.72-16.44 25.44-15.02Q24.16-13.60 24.16-10.80L24.16-10.80L24.16 0L17.92 0L17.92-11.36Q17.92-16.44 13.84-16.44L13.84-16.44Q11.68-16.44 10.40-15.02Q9.12-13.60 9.12-10.80L9.12-10.80L9.12 0L2.88 0L2.88-21.52L8.84-21.52L8.84-19.04Q10.04-20.40 11.78-21.12Q13.52-21.84 15.60-21.84L15.60-21.84Q17.88-21.84 19.72-20.94Q21.56-20.04 22.68-18.32L22.68-18.32Q24-20 26.02-20.92Q28.04-21.84 30.44-21.84L30.44-21.84Z M72.40-21.84Q76.44-21.84 78.82-19.46Q81.20-17.08 81.20-12.32L81.20-12.32L81.20 0L74.96 0L74.96-11.36Q74.96-13.92 73.90-15.18Q72.84-16.44 70.88-16.44L70.88-16.44Q68.68-16.44 67.40-15.02Q66.12-13.60 66.12-10.80L66.12-10.80L66.12 0L59.88 0L59.88-11.36Q59.88-16.44 55.80-16.44L55.80-16.44Q53.64-16.44 52.36-15.02Q51.08-13.60 51.08-10.80L51.08-10.80L51.08 0L44.84 0L44.84-21.52L50.80-21.52L50.80-19.04Q52-20.40 53.74-21.12Q55.48-21.84 57.56-21.84L57.56-21.84Q59.84-21.84 61.68-20.94Q63.52-20.04 64.64-18.32L64.64-18.32Q65.96-20 67.98-20.92Q70-21.84 72.40-21.84L72.40-21.84Z M99-5.44L100.68-1.04Q99.76-0.36 98.42-0.02Q97.08 0.32 95.60 0.32L95.60 0.32Q91.76 0.32 89.66-1.64Q87.56-3.60 87.56-7.40L87.56-7.40L87.56-16.24L84.24-16.24L84.24-21.04L87.56-21.04L87.56-26.28L93.80-26.28L93.80-21.04L99.16-21.04L99.16-16.24L93.80-16.24L93.80-7.48Q93.80-6.12 94.50-5.38Q95.20-4.64 96.48-4.64L96.48-4.64Q97.96-4.64 99-5.44L99-5.44Z M119.80-21.52L125.72-21.52L125.72-3.60Q125.72 2.32 122.64 5.20Q119.56 8.08 113.64 8.08L113.64 8.08Q110.52 8.08 107.72 7.32Q104.92 6.56 103.08 5.12L103.08 5.12L105.56 0.64Q106.92 1.76 109 2.42Q111.08 3.08 113.16 3.08L113.16 3.08Q116.40 3.08 117.94 1.62Q119.48 0.16 119.48-2.80L119.48-2.80L119.48-3.72Q117.04-1.04 112.68-1.04L112.68-1.04Q109.72-1.04 107.26-2.34Q104.80-3.64 103.36-6Q101.92-8.36 101.92-11.44L101.92-11.44Q101.92-14.52 103.36-16.88Q104.80-19.24 107.26-20.54Q109.72-21.84 112.68-21.84L112.68-21.84Q117.36-21.84 119.80-18.76L119.80-18.76L119.80-21.52ZM113.92-6.16Q116.40-6.16 117.98-7.62Q119.56-9.08 119.56-11.44L119.56-11.44Q119.56-13.80 117.98-15.26Q116.40-16.72 113.92-16.72L113.92-16.72Q111.44-16.72 109.84-15.26Q108.24-13.80 108.24-11.44L108.24-11.44Q108.24-9.08 109.84-7.62Q111.44-6.16 113.92-6.16L113.92-6.16Z"/></g>
</svg>
</g><g opacity="1" transform="rotate(0 296.0613 444.3597)">
<svg width="6" height="154" x="296.0613" y="444.3597" version="1.1" preserveAspectRatio="none" viewBox="0 0 6 154">
  <defs><rect x="0" y="0" width="6" height="154" rx="0px" ry="0px" id="id-tBXipXk0b1691086288634"></rect></defs><use class="companyName shapeStroke-str" style="stroke-width:0;" xlink:href="#id-tBXipXk0b1691086288634"></use>
</svg>
</g></svg></svg>